<?xml version="1.0" encoding="UTF-8"?>
<svg viewBox="0 0 828 352" width="828" height="352" xmlns="http://www.w3.org/2000/svg" role="img" aria-label="Checklist de avarias do toque na tela ao laudo pronto">
  <defs>
    <linearGradient id="card-Checklistdea" x1="0" y1="0" x2="1" y2="1">
      <stop offset="0" stop-color="#f0f9ff"/><stop offset="1" stop-color="#e0f2fe"/>
    </linearGradient>
    <linearGradient id="header-Checklistdea" x1="0" y1="0" x2="1" y2="0">
      <stop offset="0" stop-color="#0c4a6e"/><stop offset="1" stop-color="#0284c7"/>
    </linearGradient>
    <linearGradient id="badge-Checklistdea" x1="0" y1="0" x2="1" y2="1">
      <stop offset="0" stop-color="#38bdf8"/><stop offset="1" stop-color="#0284c7"/>
    </linearGradient>
    <radialGradient id="glow-Checklistdea" cx="0.5" cy="0.5" r="0.5">
      <stop offset="0" stop-color="#7dd3fc" stop-opacity="0.55"/>
      <stop offset="1" stop-color="#7dd3fc" stop-opacity="0"/>
    </radialGradient>
    <filter id="soft-Checklistdea" x="-50%" y="-50%" width="200%" height="200%">
      <feDropShadow dx="0" dy="14" stdDeviation="16" flood-color="#000" flood-opacity="0.38"/>
    </filter>
  </defs>
  <ellipse cx="414" cy="185" rx="230" ry="150" fill="url(#glow-Checklistdea)"/>
  
  <g transform="rotate(-5 411 181)" filter="url(#soft-Checklistdea)">
    <path d="M310 46 H478 L522 90 V306 A10 10 0 0 1 512 316 H310 A10 10 0 0 1 300 306 V56 A10 10 0 0 1 310 46 Z" fill="url(#card-Checklistdea)"/>
    <path d="M478 46 V80 A10 10 0 0 0 488 90 H522 Z" fill="#c3cede"/>
    <rect x="300" y="46" width="222" height="40" rx="10" fill="url(#header-Checklistdea)"/>
    <rect x="300" y="66" width="222" height="20" fill="url(#header-Checklistdea)"/>
    <text x="322" y="72" font-family="sans-serif" font-weight="800" font-size="12" fill="#fff">CHECKLIST · AVARIAS</text>
    <rect x="322" y="112" width="178" height="7" rx="3.5" fill="#94a3b8"/>
<rect x="322" y="130" width="150" height="7" rx="3.5" fill="#94a3b8"/>
<rect x="322" y="148" width="164" height="7" rx="3.5" fill="#94a3b8"/>
    <line x1="322" y1="242" x2="500" y2="242" stroke="#c3cede" stroke-width="1.5"/>
    <text x="322" y="264" font-family="monospace" font-size="10" fill="#1e3a5f" opacity="0.85">toque · foto · PDF</text>
  </g>
  <g transform="translate(500 96)" filter="url(#soft-Checklistdea)">
    <circle cx="0" cy="0" r="44" fill="url(#badge-Checklistdea)"/>
    <circle cx="0" cy="0" r="44" fill="none" stroke="#ffffff" stroke-opacity="0.25" stroke-width="2"/>
    <path d="M-10 0 L-3 8 L12 -9" fill="none" stroke="#fff" stroke-width="4" stroke-linecap="round" stroke-linejoin="round"/>
  </g>
</svg>