<?xml version="1.0" encoding="UTF-8"?>
<svg viewBox="0 0 828 352" width="828" height="352" xmlns="http://www.w3.org/2000/svg" role="img" aria-label="Laudo de avaria com QR Code de verificação">
  <defs>
    <linearGradient id="card-Laudodeavari" x1="0" y1="0" x2="1" y2="1">
      <stop offset="0" stop-color="#f8fafc"/><stop offset="1" stop-color="#e2e8f0"/>
    </linearGradient>
    <linearGradient id="header-Laudodeavari" x1="0" y1="0" x2="1" y2="0">
      <stop offset="0" stop-color="#1e293b"/><stop offset="1" stop-color="#334155"/>
    </linearGradient>
    <linearGradient id="badge-Laudodeavari" x1="0" y1="0" x2="1" y2="1">
      <stop offset="0" stop-color="#64748b"/><stop offset="1" stop-color="#334155"/>
    </linearGradient>
    <radialGradient id="glow-Laudodeavari" cx="0.5" cy="0.5" r="0.5">
      <stop offset="0" stop-color="#94a3b8" stop-opacity="0.55"/>
      <stop offset="1" stop-color="#94a3b8" stop-opacity="0"/>
    </radialGradient>
    <filter id="soft-Laudodeavari" x="-50%" y="-50%" width="200%" height="200%">
      <feDropShadow dx="0" dy="14" stdDeviation="16" flood-color="#000" flood-opacity="0.38"/>
    </filter>
  </defs>
  <ellipse cx="414" cy="185" rx="230" ry="150" fill="url(#glow-Laudodeavari)"/>
  
  <g transform="rotate(-5 411 181)" filter="url(#soft-Laudodeavari)">
    <path d="M310 46 H478 L522 90 V306 A10 10 0 0 1 512 316 H310 A10 10 0 0 1 300 306 V56 A10 10 0 0 1 310 46 Z" fill="url(#card-Laudodeavari)"/>
    <path d="M478 46 V80 A10 10 0 0 0 488 90 H522 Z" fill="#c3cede"/>
    <rect x="300" y="46" width="222" height="40" rx="10" fill="url(#header-Laudodeavari)"/>
    <rect x="300" y="66" width="222" height="20" fill="url(#header-Laudodeavari)"/>
    <text x="322" y="72" font-family="sans-serif" font-weight="800" font-size="12" fill="#fff">LAUDO · QR CODE</text>
    <rect x="322" y="112" width="178" height="7" rx="3.5" fill="#94a3b8"/>
<rect x="322" y="130" width="150" height="7" rx="3.5" fill="#94a3b8"/>
<rect x="322" y="148" width="164" height="7" rx="3.5" fill="#94a3b8"/>
    <line x1="322" y1="242" x2="500" y2="242" stroke="#c3cede" stroke-width="1.5"/>
    <text x="322" y="264" font-family="monospace" font-size="10" fill="#1e3a5f" opacity="0.85">verificação online</text>
  </g>
  <g transform="translate(430 210) scale(1.1304347826086956)">
    <rect x="0" y="0" width="46" height="46" rx="4" fill="#0f172a"/>
    <g fill="#f3f6fb">
      <rect x="5" y="5" width="10" height="10"/><rect x="31" y="5" width="10" height="10"/>
      <rect x="5" y="31" width="10" height="10"/><rect x="19" y="19" width="10" height="10"/>
      <rect x="33" y="19" width="4" height="4"/><rect x="19" y="33" width="4" height="4"/>
      <rect x="27" y="33" width="4" height="10"/><rect x="35" y="35" width="6" height="6"/>
    </g>
  </g>
</svg>